<?xml version="1.0" encoding="UTF-8" standalone="no"?>
<svg width="32px" height="32px" viewBox="0 0 213 187" version="1.1" xmlns="http://www.w3.org/2000/svg" xmlns:xlink="http://www.w3.org/1999/xlink" xmlns:sketch="http://www.bohemiancoding.com/sketch/ns">
    <!-- Generator: Sketch 3.4.4 (17249) - http://www.bohemiancoding.com/sketch -->
    <title>Group + Rectangle 76</title>
    <desc>Created with Sketch.</desc>
    <defs></defs>
    <g id="Page-1" stroke="none" stroke-width="1" fill="none" fill-rule="evenodd" sketch:type="MSPage">
        <g id="Group-+-Rectangle-76" sketch:type="MSLayerGroup" transform="translate(-3.000000, -4.000000)">
            <g id="Group" transform="translate(3.000000, 4.000000)" sketch:type="MSShapeGroup">
                <path d="M23.1105,78.8364889 L101.4945,78.8364889 L101.4945,0.526088889 L23.1105,0.526088889 L23.1105,78.8364889 Z M85.2,11.1660889 L89.886,11.1660889 L89.886,68.0900889 L85.2,68.0900889 L85.2,11.1660889 Z M68.586,11.1660889 L73.272,11.1660889 L73.272,68.0900889 L68.586,68.0900889 L68.586,11.1660889 Z M51.972,11.1660889 L56.658,11.1660889 L56.658,68.0900889 L51.972,68.0900889 L51.972,11.1660889 Z M35.358,11.1660889 L40.044,11.1660889 L40.044,68.0900889 L35.358,68.0900889 L35.358,11.1660889 Z" id="Fill-1" fill="#89C542"></path>
                <path d="M110.973,78.8364889 L189.357,78.8364889 L189.357,0.526088889 L110.973,0.526088889 L110.973,78.8364889 Z M172.743,11.1660889 L177.429,11.1660889 L177.429,68.0900889 L172.743,68.0900889 L172.743,11.1660889 Z M156.0225,11.1660889 L160.7085,11.1660889 L160.7085,68.0900889 L156.0225,68.0900889 L156.0225,11.1660889 Z M139.4085,11.1660889 L144.0945,11.1660889 L144.0945,68.0900889 L139.4085,68.0900889 L139.4085,11.1660889 Z M122.7945,11.1660889 L127.4805,11.1660889 L127.4805,68.0900889 L122.7945,68.0900889 L122.7945,11.1660889 Z" id="Fill-2" fill="#0BAED0"></path>
                <path d="M89.886,155.870089 L85.2,155.870089 L85.2,98.9460889 L89.886,98.9460889 L89.886,155.870089 Z M73.272,155.870089 L68.586,155.870089 L68.586,98.9460889 L73.272,98.9460889 L73.272,155.870089 Z M56.658,155.870089 L51.972,155.870089 L51.972,98.9460889 L56.658,98.9460889 L56.658,155.870089 Z M40.044,155.870089 L35.358,155.870089 L35.358,98.9460889 L40.044,98.9460889 L40.044,155.870089 Z M23.1105,166.616489 L101.4945,166.616489 L101.4945,88.3060889 L23.1105,88.3060889 L23.1105,166.616489 Z" id="Fill-3" fill="#0BAED0"></path>
                <path d="M177.429,155.870089 L172.743,155.870089 L172.743,98.9460889 L177.429,98.9460889 L177.429,155.870089 Z M160.7085,155.870089 L156.0225,155.870089 L156.0225,98.9460889 L160.7085,98.9460889 L160.7085,155.870089 Z M144.0945,155.870089 L139.4085,155.870089 L139.4085,98.9460889 L144.0945,98.9460889 L144.0945,155.870089 Z M127.4805,155.870089 L122.7945,155.870089 L122.7945,98.9460889 L127.4805,98.9460889 L127.4805,155.870089 Z M110.973,166.616489 L189.357,166.616489 L189.357,88.3060889 L110.973,88.3060889 L110.973,166.616489 Z" id="Fill-4" fill="#89C542"></path>
                <path d="M201.8175,143.846889 L201.8175,175.873289 L11.1825,175.873289 L11.1825,143.846889 L0,143.846889 L0,186.938889 L213,186.938889 L213,143.846889 L201.8175,143.846889 Z" id="Fill-5" fill="#064469"></path>
            </g>
            <rect id="Rectangle-76" sketch:type="MSShapeGroup" x="0" y="0" width="220" height="194"></rect>
        </g>
    </g>
</svg>